<mxfile host="Electron" modified="2023-12-02T06:24:08.053Z" agent="Mozilla/5.0 (Windows NT 10.0; Win64; x64) AppleWebKit/537.36 (KHTML, like Gecko) draw.io/21.6.8 Chrome/114.0.5735.289 Electron/25.5.0 Safari/537.36" etag="f8nirJtRmYbzAM3l4GjX" version="21.6.8" type="device">
  <diagram name="Page-1" id="q_Xpyq0dHs8od2Jn37UZ">
    <mxGraphModel dx="1098" dy="828" grid="1" gridSize="10" guides="1" tooltips="1" connect="1" arrows="1" fold="1" page="1" pageScale="1" pageWidth="850" pageHeight="1100" math="0" shadow="0">
      <root>
        <mxCell id="0" />
        <mxCell id="1" parent="0" />
        <mxCell id="y6Ih26sbKCwqaQr6ANjx-13" value="" style="rounded=0;whiteSpace=wrap;html=1;" vertex="1" parent="1">
          <mxGeometry x="180" y="150" width="450" height="630" as="geometry" />
        </mxCell>
        <mxCell id="y6Ih26sbKCwqaQr6ANjx-3" value="" style="edgeStyle=orthogonalEdgeStyle;rounded=0;orthogonalLoop=1;jettySize=auto;html=1;" edge="1" parent="1" source="y6Ih26sbKCwqaQr6ANjx-1" target="y6Ih26sbKCwqaQr6ANjx-2">
          <mxGeometry relative="1" as="geometry" />
        </mxCell>
        <mxCell id="y6Ih26sbKCwqaQr6ANjx-1" value="User Prompt" style="rounded=0;whiteSpace=wrap;html=1;" vertex="1" parent="1">
          <mxGeometry x="300" y="190" width="120" height="60" as="geometry" />
        </mxCell>
        <mxCell id="y6Ih26sbKCwqaQr6ANjx-6" value="" style="edgeStyle=orthogonalEdgeStyle;rounded=0;orthogonalLoop=1;jettySize=auto;html=1;" edge="1" parent="1" source="y6Ih26sbKCwqaQr6ANjx-2" target="y6Ih26sbKCwqaQr6ANjx-5">
          <mxGeometry relative="1" as="geometry" />
        </mxCell>
        <mxCell id="y6Ih26sbKCwqaQr6ANjx-2" value="Contextual Retriever" style="shape=cylinder3;whiteSpace=wrap;html=1;boundedLbl=1;backgroundOutline=1;size=15;" vertex="1" parent="1">
          <mxGeometry x="330" y="320" width="60" height="80" as="geometry" />
        </mxCell>
        <mxCell id="y6Ih26sbKCwqaQr6ANjx-9" value="" style="edgeStyle=orthogonalEdgeStyle;rounded=0;orthogonalLoop=1;jettySize=auto;html=1;" edge="1" parent="1" source="y6Ih26sbKCwqaQr6ANjx-4" target="y6Ih26sbKCwqaQr6ANjx-8">
          <mxGeometry relative="1" as="geometry" />
        </mxCell>
        <mxCell id="y6Ih26sbKCwqaQr6ANjx-4" value="Vector Store Search" style="shape=cylinder3;whiteSpace=wrap;html=1;boundedLbl=1;backgroundOutline=1;size=15;" vertex="1" parent="1">
          <mxGeometry x="330" y="560" width="60" height="80" as="geometry" />
        </mxCell>
        <mxCell id="y6Ih26sbKCwqaQr6ANjx-7" value="" style="edgeStyle=orthogonalEdgeStyle;rounded=0;orthogonalLoop=1;jettySize=auto;html=1;" edge="1" parent="1" source="y6Ih26sbKCwqaQr6ANjx-5" target="y6Ih26sbKCwqaQr6ANjx-4">
          <mxGeometry relative="1" as="geometry" />
        </mxCell>
        <mxCell id="y6Ih26sbKCwqaQr6ANjx-5" value="Embedding the Hypothetical Answer" style="rounded=0;whiteSpace=wrap;html=1;" vertex="1" parent="1">
          <mxGeometry x="300" y="440" width="120" height="60" as="geometry" />
        </mxCell>
        <mxCell id="y6Ih26sbKCwqaQr6ANjx-8" value="Output" style="rounded=0;whiteSpace=wrap;html=1;" vertex="1" parent="1">
          <mxGeometry x="300" y="700" width="120" height="60" as="geometry" />
        </mxCell>
        <mxCell id="y6Ih26sbKCwqaQr6ANjx-10" value="Turns the user prompt into a question and provide an Hypothetical Answer" style="text;html=1;strokeColor=none;fillColor=none;align=left;verticalAlign=middle;whiteSpace=wrap;rounded=0;" vertex="1" parent="1">
          <mxGeometry x="410" y="340" width="210" height="60" as="geometry" />
        </mxCell>
        <mxCell id="y6Ih26sbKCwqaQr6ANjx-12" value="For the embeddings of the Hypothetical Answer" style="text;html=1;strokeColor=none;fillColor=none;align=left;verticalAlign=middle;whiteSpace=wrap;rounded=0;" vertex="1" parent="1">
          <mxGeometry x="410" y="570" width="160" height="60" as="geometry" />
        </mxCell>
        <mxCell id="y6Ih26sbKCwqaQr6ANjx-14" value="1" style="ellipse;whiteSpace=wrap;html=1;aspect=fixed;" vertex="1" parent="1">
          <mxGeometry x="250" y="205" width="30" height="30" as="geometry" />
        </mxCell>
        <mxCell id="y6Ih26sbKCwqaQr6ANjx-15" value="2" style="ellipse;whiteSpace=wrap;html=1;aspect=fixed;" vertex="1" parent="1">
          <mxGeometry x="250" y="355" width="30" height="30" as="geometry" />
        </mxCell>
        <mxCell id="y6Ih26sbKCwqaQr6ANjx-16" value="3" style="ellipse;whiteSpace=wrap;html=1;aspect=fixed;" vertex="1" parent="1">
          <mxGeometry x="250" y="455" width="30" height="30" as="geometry" />
        </mxCell>
        <mxCell id="y6Ih26sbKCwqaQr6ANjx-17" value="4" style="ellipse;whiteSpace=wrap;html=1;aspect=fixed;" vertex="1" parent="1">
          <mxGeometry x="250" y="585" width="30" height="30" as="geometry" />
        </mxCell>
        <mxCell id="y6Ih26sbKCwqaQr6ANjx-18" value="5" style="ellipse;whiteSpace=wrap;html=1;aspect=fixed;" vertex="1" parent="1">
          <mxGeometry x="250" y="715" width="30" height="30" as="geometry" />
        </mxCell>
      </root>
    </mxGraphModel>
  </diagram>
</mxfile>
